# xmcd
#
# Track frame offsets:
#	150
#	13618
#	22808
#	24394
#	39948
#	65546
#	85280
#	98045
#	115082
#	126309
#	127498
#
# Disc length: 2013 seconds
#
# Revision: 0
# Processed by: cddbd v1.5.1PL2 Copyright (c) Steve Scherf et al.
# Submitted via: dBpowerAMP V4.0
#
DISCID=8907db0b
DTITLE=A.S.F - Acoustic Soul Factory
DYEAR=2002
DGENRE=Blues
TTITLE0=Gotta keep movin'on
TTITLE1=Friends are for
TTITLE2=Interlude #1 - "Caz in the kitchen"
TTITLE3=Eddie's lonely heart
TTITLE4=Gypsy Man
TTITLE5=Love the one you're with
TTITLE6=Still can't forget you
TTITLE7=Ain't got no money
TTITLE8=Two more bottles of wine
TTITLE9=Interlude #2 - "Vocalizing in the hall"
TTITLE10=Proud Mary
EXTD=
EXTT0=
EXTT1=
EXTT2=
EXTT3=
EXTT4=
EXTT5=
EXTT6=
EXTT7=
EXTT8=
EXTT9=
EXTT10=
PLAYORDER=
